<?xml version="1.0" encoding="UTF-8" standalone="no"?>
<!-- Created with Inkscape (http://www.inkscape.org/) -->

<svg
   xmlns:dc="http://purl.org/dc/elements/1.1/"
   xmlns:cc="http://creativecommons.org/ns#"
   xmlns:rdf="http://www.w3.org/1999/02/22-rdf-syntax-ns#"
   xmlns:svg="http://www.w3.org/2000/svg"
   xmlns="http://www.w3.org/2000/svg"
   xmlns:sodipodi="http://sodipodi.sourceforge.net/DTD/sodipodi-0.dtd"
   xmlns:inkscape="http://www.inkscape.org/namespaces/inkscape"
   width="1000"
   height="1000"
   viewBox="0 0 264.58333 264.58334"
   version="1.1"
   id="svg8"
   inkscape:version="0.92.4 (5da689c313, 2019-01-14)"
   sodipodi:docname="ClassAlertsOrgLogo.svg"
   inkscape:export-filename="F:\Files\Desktop\ClassAlertsOrgLogoBackground.png"
   inkscape:export-xdpi="96"
   inkscape:export-ydpi="96">
  <defs
     id="defs2">
    <marker
       inkscape:stockid="EmptyTriangleInS"
       orient="auto"
       refY="0.0"
       refX="0.0"
       id="EmptyTriangleInS"
       style="overflow:visible"
       inkscape:isstock="true">
      <path
         id="path4744"
         d="M 5.77,0.0 L -2.88,5.0 L -2.88,-5.0 L 5.77,0.0 z "
         style="fill-rule:evenodd;fill:#ffffff;stroke:#00aa44;stroke-width:1pt;stroke-opacity:1"
         transform="scale(-0.2) translate(-3.0,0)" />
    </marker>
    <marker
       inkscape:stockid="Scissors"
       orient="auto"
       refY="0.0"
       refX="0.0"
       id="Scissors"
       style="overflow:visible"
       inkscape:isstock="true">
      <path
         id="schere"
         d="M 9.0898857,-3.6061018 C 8.1198849,-4.7769976 6.3697607,-4.7358294 5.0623558,-4.2327734 L -3.1500488,-1.1548705 C -5.5383421,-2.4615840 -7.8983361,-2.0874077 -7.8983361,-2.7236578 C -7.8983361,-3.2209742 -7.4416699,-3.1119800 -7.5100293,-4.4068519 C -7.5756648,-5.6501286 -8.8736064,-6.5699315 -10.100428,-6.4884954 C -11.327699,-6.4958500 -12.599867,-5.5553341 -12.610769,-4.2584343 C -12.702194,-2.9520479 -11.603560,-1.7387447 -10.304005,-1.6532027 C -8.7816644,-1.4265411 -6.0857470,-2.3487593 -4.8210600,-0.082342643 C -5.7633447,1.6559151 -7.4350844,1.6607341 -8.9465707,1.5737277 C -10.201445,1.5014928 -11.708664,1.8611256 -12.307219,3.0945882 C -12.885586,4.2766744 -12.318421,5.9591904 -10.990470,6.3210002 C -9.6502788,6.8128279 -7.8098011,6.1912892 -7.4910978,4.6502760 C -7.2454393,3.4624530 -8.0864637,2.9043186 -7.7636052,2.4731223 C -7.5199917,2.1477623 -5.9728246,2.3362771 -3.2164999,1.0982979 L 5.6763468,4.2330688 C 6.8000164,4.5467672 8.1730685,4.5362646 9.1684433,3.4313614 L -0.051640930,-0.053722219 L 9.0898857,-3.6061018 z M -9.2179159,-5.5066058 C -7.9233569,-4.7838060 -8.0290767,-2.8230356 -9.3743431,-2.4433169 C -10.590861,-2.0196559 -12.145370,-3.2022863 -11.757521,-4.5207817 C -11.530373,-5.6026336 -10.104134,-6.0014137 -9.2179159,-5.5066058 z M -9.1616516,2.5107591 C -7.8108215,3.0096239 -8.0402087,5.2951947 -9.4138723,5.6023681 C -10.324932,5.9187072 -11.627422,5.4635705 -11.719569,4.3902287 C -11.897178,3.0851737 -10.363484,1.9060805 -9.1616516,2.5107591 z "
         style="fill:#00aa44;stroke:#00aa44;stroke-opacity:1;fill-opacity:1" />
    </marker>
  </defs>
  <sodipodi:namedview
     id="base"
     pagecolor="#ffffff"
     bordercolor="#666666"
     borderopacity="1.0"
     inkscape:pageopacity="0"
     inkscape:pageshadow="2"
     inkscape:zoom="0.49497475"
     inkscape:cx="341.19322"
     inkscape:cy="503.70836"
     inkscape:document-units="mm"
     inkscape:current-layer="layer1"
     showgrid="false"
     units="px"
     inkscape:pagecheckerboard="true"
     showborder="true"
     inkscape:showpageshadow="false"
     inkscape:window-width="1920"
     inkscape:window-height="1017"
     inkscape:window-x="-8"
     inkscape:window-y="-8"
     inkscape:window-maximized="1"
     inkscape:snap-grids="false"
     inkscape:snap-to-guides="false"
     inkscape:snap-others="false"
     inkscape:object-nodes="false"
     inkscape:snap-nodes="false"
     inkscape:snap-global="false" />
  <metadata
     id="metadata5">
    <rdf:RDF>
      <cc:Work
         rdf:about="">
        <dc:format>image/svg+xml</dc:format>
        <dc:type
           rdf:resource="http://purl.org/dc/dcmitype/StillImage" />
        <dc:title></dc:title>
      </cc:Work>
    </rdf:RDF>
  </metadata>
  <g
     inkscape:label="Layer 1"
     inkscape:groupmode="layer"
     id="layer1"
     transform="translate(0,-32.41665)">
    <circle
       style="opacity:1;fill:#fafafa;fill-opacity:1;stroke:none;stroke-width:31.74999619;stroke-linecap:round;stroke-linejoin:round;stroke-miterlimit:1.20000005;stroke-dasharray:none;stroke-opacity:1;paint-order:fill markers stroke"
       id="path4585"
       cx="132.29166"
       cy="164.70831"
       r="171.97916" />
    <a
       id="a3751"
       style="stroke-width:8.0230428;stroke-miterlimit:4;stroke-dasharray:none;stroke:#585858;stroke-opacity:1"
       transform="matrix(1.6491284,0,0,1.6486645,-53.235263,-57.047597)"
       inkscape:export-xdpi="96"
       inkscape:export-ydpi="96">
      <circle
         r="62.368099"
         style="fill:none;stroke:#585858;stroke-width:8.0230428;stroke-miterlimit:4;stroke-dasharray:none;stroke-opacity:1"
         cy="134.5"
         cx="112.49999"
         id="path3713" />
    </a>
    <path
       style="fill:none;stroke:#585858;stroke-width:13.22916667;stroke-miterlimit:4;stroke-dasharray:none;stroke-opacity:1"
       id="path3715"
       sodipodi:type="arc"
       sodipodi:cx="57.378876"
       sodipodi:cy="91.801102"
       sodipodi:rx="43.445011"
       sodipodi:ry="42.918068"
       sodipodi:start="2.3334712"
       sodipodi:end="5.4709708"
       d="M 27.36455,122.83046 A 43.445011,42.918068 0 0 1 25.90718,62.214383 43.445011,42.918068 0 0 1 87.264386,60.65064 l -29.88551,31.150462 z"
       inkscape:export-xdpi="96"
       inkscape:export-ydpi="96" />
    <path
       style="fill:none;stroke:#585858;stroke-width:13.22916667;stroke-miterlimit:4;stroke-dasharray:none;stroke-opacity:1"
       id="path3715-3"
       sodipodi:type="arc"
       sodipodi:cx="-206.7578"
       sodipodi:cy="92.052261"
       sodipodi:rx="43.445427"
       sodipodi:ry="42.589039"
       sodipodi:start="2.3334712"
       sodipodi:end="5.4709708"
       d="m -236.77241,122.84374 a 43.445427,42.589039 0 0 1 -1.45738,-60.151372 43.445427,42.589039 0 0 1 61.35779,-1.551755 l -29.8858,30.911648 z"
       transform="scale(-1,1)"
       inkscape:export-xdpi="96"
       inkscape:export-ydpi="96" />
    <path
       style="fill:none;stroke:#00aa44;stroke-width:31.75;stroke-linecap:round;stroke-linejoin:round;stroke-miterlimit:1.20000005;stroke-dasharray:none;stroke-opacity:1;paint-order:fill markers stroke;marker-start:"
       d="M 77.944844,156.31428 122.725,199.09279 188.47988,121.56104"
       id="path3746"
       inkscape:connector-curvature="0"
       sodipodi:nodetypes="ccc" />
    <path
       style="fill:none;stroke:#585858;stroke-width:13.22916667;stroke-linecap:butt;stroke-linejoin:miter;stroke-miterlimit:4;stroke-dasharray:none;stroke-opacity:1"
       d="M 63.857109,241.27017 28.221126,276.70642"
       id="path4559"
       inkscape:connector-curvature="0"
       inkscape:export-xdpi="96"
       inkscape:export-ydpi="96" />
    <path
       style="fill:none;stroke:#585858;stroke-width:13.22916667;stroke-linecap:butt;stroke-linejoin:miter;stroke-miterlimit:4;stroke-dasharray:none;stroke-opacity:1"
       d="m 200.20029,241.27017 35.63598,35.43625"
       id="path4559-5"
       inkscape:connector-curvature="0"
       inkscape:export-xdpi="96"
       inkscape:export-ydpi="96" />
  </g>
</svg>
