<svg version="1" xmlns="http://www.w3.org/2000/svg" width="1333.333" height="1333.333"
     viewBox="0 0 1000.000000 1000.000000">
    <path d="M202.7 47.6c-.1.1-2.6.5-5.5.8-28 3.1-55.5 12.9-78.6 27.9-25.3 16.6-47.3 40.6-60.6 66.2-9.2 17.7-16.4 39.7-18.5 56.4-3.7 29-1.5 53.8 7.2 80.6 3.7 11.4 12.3 29.9 18.6 39.7 6.3 9.8 19 25 29 34.5l9.6 9.2 7.4-7.7c4.1-4.2 10.5-10.8 14.2-14.6l6.6-7-3.5 8.1c-13.3 31.1-24.6 71.5-28.1 100.3-.7 6.5-1.6 13.1-2.1 16-2.8 17.7-2.3 69.2 1.1 92.5.3 2.2.8 5.8 1 8 1.4 10.8 2.9 18.2 8.1 39.5 12.7 52.1 36.6 101.8 70.2 146.5 4.2 5.5 7.8 10.2 8.1 10.5.3.3 3.3 3.6 6.6 7.5 3.3 3.8 6.2 7.2 6.5 7.5.3.3 3.2 3.4 6.5 6.8l6 6.2-61.8 61.3L89 905.5l17.3 17.4c9.6 9.6 17.7 17.4 18.1 17.3.5 0 28.1-27.2 61.5-60.4 33.3-33.1 61.4-60.9 62.3-61.6 1.4-1.1 2.9-.4 11 5.7 28.1 20.8 59.5 38.3 91.8 51.1 13 5.1 32.6 11.7 40.5 13.6.6.1 4.4 1.1 8.5 2.3 7.9 2.2 28.1 6.4 36.3 7.6 2.7.3 5.9.8 7 1.1 1.2.2 4.9.6 8.2 1 3.3.3 6.6.7 7.2.9 2.3.8 27.7 1.9 41.8 1.9 12.8 0 33.6-1 41-1.9 1.7-.2 5.3-.6 8.1-1 2.9-.3 6-.7 7-.9 3.4-.7 10.4-1.8 12.7-2.1 4.9-.6 10.9-1.9 26.7-5.7 51.2-12.3 100.9-35.6 144.1-67.4 4.8-3.5 8.9-6.4 9.3-6.4.4 0 28.4 27.6 62.2 61.2 33.9 33.7 61.8 61.3 62.1 61.2.3-.1 8.4-7.9 18-17.5l17.4-17.4-61.2-60.7-61.2-60.7 6-6.3c41.1-42.7 74.1-98.7 92.2-156.5 2.3-7.2 4.4-14 4.6-15 .2-1 .9-3.4 1.5-5.3 1.2-4.1 7.6-35.6 8.3-41.5.3-2.2.9-6.5 1.2-9.5.4-3 .8-6.5 1-7.8 2.4-15.8 2.5-69 .1-84.2-.3-1.4-.8-5.2-1.1-8.5-.4-3.3-.9-7.4-1.1-9-2.2-16.9-13.1-61.6-17.4-71-.5-1.1-1.2-3.1-1.5-4.5-.4-1.4-1.3-3.9-2-5.5-.7-1.7-2.1-5-3-7.5-.9-2.5-2.6-6.8-3.7-9.5l-2-5 12.4 12.7 12.3 12.7 10-9.8c15.2-14.9 23.5-25 31.4-38.6 5.7-9.7 12.1-22.7 12.1-24.7 0-.8.4-1.8.9-2.3 1.8-2.1 7.9-23.9 9.5-34.5 3-19.3 2.5-47.9-.9-60-.2-.8-.7-3-1-4.9-3-17.6-14.4-43.5-27-61.6C873.3 46.1 763.4 25.4 681 79.8c-6.7 4.4-20.1 15.1-23 18.2-.3.3-2.8 2.6-5.7 5.2l-5.2 4.8 5.5 5.7c3 3.2 9 9.4 13.2 13.7 4.2 4.4 7 7.7 6.2 7.3-.8-.3-7.2-3.1-14.2-6.1-14.4-6.3-37-14.1-53.3-18.5-11.5-3-30.6-7.3-34-7.6-1.1-.1-3.3-.4-5-.8-3.9-.8-8.2-1.4-19.7-2.7-30.3-3.5-68.6-3.3-96.8.6-4.9.6-17.1 2.6-19.5 3-1.1.3-3.6.7-5.5 1-15.1 2.5-42.6 10.1-62 17.1-13 4.7-36.5 14.8-38.8 16.6-.7.5-1.4.8-1.6.6-.3-.2 3.4-4.5 8.2-9.4 4.7-5 11.5-12 15-15.7l6.4-6.7-5.8-5.4c-15.2-14-27-23.1-38.4-29.3-1.9-1-4.2-2.4-5-3-2.5-2-22-10.1-30.7-12.8-8.3-2.6-23.6-5.9-32.8-7.2-4.7-.6-35.2-1.3-35.8-.8zm33.7 30.8c23.3 3.1 48.9 13.1 67.8 26.7l3.7 2.6-5.5 5.9c-3.1 3.3-13.8 14.4-23.9 24.9-10 10.4-20.1 21-22.5 23.5-2.3 2.5-13.3 13.9-24.4 25.4-11 11.5-22.5 23.4-25.5 26.5-2.9 3.1-15.6 16.2-28.1 29.1-12.5 12.9-25.2 26-28.1 29.1-3 3.1-14.6 15.2-25.9 26.8l-20.5 21.2-2.8-3.3c-9.2-10.9-20.2-30.6-25.1-44.8-6.7-19.6-9.2-40.9-7.2-61.5 5.9-60.1 48.9-111 108-127.7 16.4-4.7 42.9-6.6 60-4.4zM799 80.5c3.6.4 7.4.9 8.5 1.1 1.1.3 4.3.9 7.1 1.5 6.6 1.2 23.1 6.8 30.7 10.3 6.5 3 21.8 11.9 23.9 13.8.7.7 3.9 3.3 7 5.6 8.8 6.7 22.6 21.7 29.6 32.1 29.2 43.7 32.8 97.8 9.6 144.3-4 8.2-13.4 22.7-18.4 28.7l-2.1 2.4-10.2-10.5c-68.8-70.5-122-125.3-142.1-146.1-5.6-5.9-45.4-47.2-50.6-52.5-1.2-1.3-1.1-1.7 1-3.4 3.6-2.9 17.5-11 25-14.5 13.6-6.3 29.2-10.7 46.5-12.9 2.8-.3 5.1-.7 5.2-.8.5-.4 23.9.2 29.3.9zm-269.8 46.9c10.4.9 24.4 2.7 32.8 4.2 1.4.2 3.9.6 5.5.9 8 1.4 15 2.9 25.2 5.6 55.9 14.4 106.9 41 151.4 78.9 8.3 7 33 31.6 37.9 37.6 19.7 24.3 28.3 36.3 40.1 56.1 22.8 38.4 40.5 87.4 46.5 128.8.3 1.6.7 4 .9 5.2.3 1.2.8 4.6 1.1 7.5.3 2.9.7 6.4 1 7.8 1.8 10.2 2.4 47.8 1.1 65.5-1.2 17.2-1.7 21.5-4.2 36-.3 1.6-.8 4.6-1.1 6.5-6.3 39.1-25.4 88.8-48.7 127-6.5 10.6-23 34.5-25.7 37-.3.3-2.7 3.2-5.5 6.5-8.1 9.8-10.4 12.3-23 25-15.3 15.4-20.8 20.3-37.5 33.1-38.5 29.6-81.6 50.8-131 64.4-6.6 1.8-19.5 4.9-23 5.5-1.9.3-5.7 1-8.5 1.5-5 .9-16.1 2.5-24.5 3.5-20.4 2.4-60.8 2.4-79.5 0-1.6-.2-5.3-.6-8.2-1-2.8-.3-7.8-1-11-1.6-3.2-.5-8.3-1.4-11.3-1.9-3-.6-7-1.4-8.8-1.9-1.8-.5-3.5-1-3.7-1-2.8.1-30.8-7.9-42.5-12.1-9-3.2-13.3-4.9-21.8-8.7-2.9-1.3-5.5-2.3-5.8-2.3-.2 0-6.6-3.1-14.2-6.9-96-48-166.4-134.2-194.2-237.6-2.5-9.3-5.1-21.4-7.4-33.7-.5-3-2.2-15-3.1-21.8-2.5-20-2.5-66.8-.1-81 .3-1.4.7-5.2 1.1-8.5.3-3.3.8-6.9 1-8 .3-1.1.7-3.7 1-5.8.3-2.2 1.2-6.9 2-10.5.8-3.7 1.6-7.8 1.9-9.2.8-5 4.9-19.8 8.3-30.5 9.3-28.9 20.2-53.3 34.7-77.5 1.4-2.5 3.4-6 4.3-7.8.9-1.7 2-3.2 2.5-3.2.4 0 .8-.5.8-1 0-1.6 19.1-28.4 24.7-34.5 1-1.1 3.6-4.3 5.8-7 4-5 32.5-33.9 38-38.5 37.8-31.5 72.8-52.2 114.5-67.8 22.7-8.5 49.5-15.7 70-18.8 1.9-.3 4.6-.7 5.9-.9 1.3-.2 4.5-.7 7-1 2.5-.4 6-.8 7.7-1 1.7-.3 7.1-.7 12-1.1 4.9-.3 9-.7 9.1-.8.5-.4 42 .2 48.5.8z"/>
    <path d="M725.8 255.6c-.2.1-2.5.5-5.2.8-6 .8-16.4 5.5-21.7 9.7-3.6 2.8-14 14.4-26.9 29.9-2.5 3-7.4 8.8-11 13-3.6 4.1-12.6 14.7-20 23.5s-14.4 17.1-15.6 18.5c-1.2 1.4-5.4 6.3-9.4 11-3.9 4.7-8.2 9.6-9.4 11-1.1 1.4-5.5 6.5-9.6 11.5-4.1 4.9-7.7 9.2-8 9.5-.5.4-15.7 18.4-28.4 33.4-2.2 2.7-4.6 5.4-5.1 6-.6.6-4.4 5.1-8.5 10.1-4.1 4.9-8 9.4-8.6 10-.6.5-4.6 5.3-9 10.5-4.3 5.2-8.3 10-8.9 10.6-.5.6-2.8 3.3-5 6-4.3 5.2-14.7 17.4-22.6 26.5-2.7 3.1-5.9 6.9-7.1 8.5-1.3 1.6-3.3 4-4.5 5.4-1.3 1.4-2.3 2.8-2.3 3.2 0 2.2-3.3 0-10.5-6.8-4.4-4.2-12.5-12-18.1-17.3-5.5-5.3-17.8-17-27.4-26.1-9.5-9.1-19.6-18.8-22.5-21.5-2.8-2.8-13.2-12.7-23-22-9.8-9.4-21.6-20.7-26.3-25.1-14.9-14.3-25-18.7-41.6-18-10.9.5-16.8 2.4-25.8 8.3-21.4 14.1-28.2 43.1-15.3 65.8 4 7 3.9 7 27 29 34.4 32.8 42.1 40.1 53 50.6 6 5.8 12.6 12.1 14.6 14 5.3 5 38.4 36.6 44.5 42.4 43.9 42.2 44.1 42.4 51.9 46.1 18.1 8.5 40.2 5.3 54.6-7.9 2.6-2.3 13.6-14.8 24.5-27.7 10.9-12.9 26.1-30.9 33.9-40 7.7-9.1 14.9-17.6 16-18.9 1.1-1.3 3.8-4.5 6-7.1 2.2-2.5 5.9-6.8 8.2-9.5 8.9-10.6 33.2-39.4 38.8-46 2.4-2.8 8.5-10 13.6-16 5.2-6.1 10.8-12.6 12.4-14.6 3.9-4.7 22.7-26.8 25.1-29.5 1.1-1.2 3.7-4.3 5.9-7 2.2-2.6 8.1-9.6 13-15.4 5-5.8 12.6-14.8 17-20 4.4-5.2 8.2-9.7 8.5-10 .3-.3 5.2-6.1 10.9-13 5.8-6.9 10.9-13 11.5-13.5.7-.6 3.7-4.2 6.8-8 9.5-12 13.1-21.4 13.1-34.9-.1-26.4-21.4-47.8-49-49.1-2.4-.1-4.4-.1-4.5.1z"/>
</svg>